<svg xmlns="http://www.w3.org/2000/svg" xmlns:xlink="http://www.w3.org/1999/xlink" viewBox="0 0 95.481 56.85947191011236" height="56.85947191011236" width="95.481" data-background-color="#ffffff" preserveAspectRatio="xMidYMid meet" id="tight-bounds"><g><svg viewBox="0 0 95.481 56.85947191011236" height="56.85947191011236" width="95.481"><g><svg viewBox="0 0 95.481 56.85947191011236" height="56.85947191011236" width="95.481"><g id="textblocktransform"><svg viewBox="0 0 95.481 56.85947191011236" height="56.85947191011236" width="95.481" id="textblock"><g><svg viewBox="0 0 95.481 56.85947191011236" height="56.85947191011236" width="95.481"><g><svg viewBox="0 0 95.481 56.85947191011236" height="56.85947191011236" width="95.481"><g><svg xmlns="http://www.w3.org/2000/svg" xmlns:xlink="http://www.w3.org/1999/xlink" version="1.1" x="0" y="0" viewBox="278 343 445 265" enable-background="new 0 0 1000 1000" xml:space="preserve" height="56.85947191011236" width="95.481" class="icon-icon-0" data-fill-palette-color="accent" id="icon-0"><g fill="#ff9b90" data-fill-palette-color="accent"><path d="M510 373v-11h11v-7h-11v-12h-20v12h-13v7h13v11c-106 5-191 93-191 201h403C702 466 617 378 510 373zM671 549c0-3-1-7-2-11s-2-9-4-14c-1-3-2-5-3-8s-2-5-3-8c-2-6-6-11-9-17-4-5-7-11-12-16-4-5-9-10-14-15-5-4-11-9-16-12-5-4-12-7-17-10-6-2-11-5-17-7-3-1-5-2-8-2-3-1-5-1-8-2-5-1-9-2-14-2-4-1-8-1-10-1-6 0-9 0-9 0h-1c-7 0-12-5-12-12s5-12 12-12h1c0 0 4 0 11 1 3 0 7 1 12 2 5 1 10 2 15 4 3 1 6 2 9 3s6 2 9 4c6 2 12 6 18 9 6 4 12 8 18 13s11 10 16 15c5 6 10 11 14 18 4 6 7 12 11 19 3 6 6 12 7 19 1 3 2 6 3 9 1 3 1 6 2 8 1 5 2 10 2 15 1 4 1 8 1 11 0 6 0 10 0 10S672 555 671 549z" fill="#ff9b90" data-fill-palette-color="accent"/><polygon points="710,580 290,580 278,608 723,608  " fill="#ff9b90" data-fill-palette-color="accent"/></g></svg></g></svg></g></svg></g></svg></g></svg></g></svg></g><defs/></svg>